<?xml version="1.0" encoding="UTF-8" standalone="no"?>
<svg
   xmlns:dc="http://purl.org/dc/elements/1.1/"
   xmlns:cc="http://creativecommons.org/ns#"
   xmlns:rdf="http://www.w3.org/1999/02/22-rdf-syntax-ns#"
   xmlns:svg="http://www.w3.org/2000/svg"
   xmlns="http://www.w3.org/2000/svg"
   viewBox="0 0 4000 4000"
   height="4000"
   width="4000"
   xml:space="preserve"
   id="svg10"
   version="1.1"><metadata
     id="metadata16"><rdf:RDF><cc:Work
         rdf:about=""><dc:format>image/svg+xml</dc:format><dc:type
           rdf:resource="http://purl.org/dc/dcmitype/StillImage" /><dc:title></dc:title></cc:Work></rdf:RDF></metadata><defs
     id="defs14" /><g
     transform="matrix(1.3333333,0,0,-1.3333333,0,4000)"
     id="g18"><g
       transform="scale(0.1)"
       id="g20"><g
         transform="scale(1.53442)"
         id="g22"><path
           id="path24"
           style="fill:#100f0d;fill-opacity:1;fill-rule:nonzero;stroke:none"
           d="m 15351.8,12833 c 171.8,188 372.3,294.5 607.5,189.4 57.3,-25.7 307.1,-157.4 321.5,-334.8 19.2,-236.9 -91.2,-527.8 -244.4,-773.7 -325.3,-522 -613.2,-927.4 -831.1,-1247.9 -137,-201.6 -260.6,-294.2 -500.8,-352.9 -189.2,-46.2 -464.2,49.8 -579.6,264.9 -58.8,109.8 -66.1,308.2 36,510 216.7,428.4 888.5,1414.1 1190.9,1745" /></g><g
         transform="scale(1.42863)"
         id="g26"><path
           id="path28"
           style="fill:#100f0d;fill-opacity:1;fill-rule:nonzero;stroke:none"
           d="m 15132.3,14788.3 c 212.2,237.1 459.7,371.7 749.3,240 70.7,-32.1 378.1,-197.3 395.4,-420.6 23,-298.3 -113.8,-664.6 -303.3,-974.6 -402.4,-658.2 -783.6,-1256 -1053.1,-1660.1 -84.4,153.8 -896.6,498.7 -1247.2,642.3 268.3,540 1085.2,1755.6 1458.9,2173" /></g><g
         transform="scale(1.40418)"
         id="g30"><path
           id="path32"
           style="fill:#100f0d;fill-opacity:1;fill-rule:nonzero;stroke:none"
           d="m 13954.6,15913.2 c 216.5,246.5 468.8,386.8 763.5,250.7 71.8,-33.2 384.7,-204.1 401.8,-436 22.8,-309.6 -117.3,-690.4 -310.9,-1012.6 -411.1,-684.3 -856.8,-1358.4 -1118.2,-1787.3 0,0 -66.4,37.8 -108.9,53.2 119.8,352.8 173.3,509.4 100.5,676.7 -17.3,40.1 -61.1,89.2 -132,120.5 -265.5,117.2 -853.2,295.2 -853.2,295.2 105.7,179.2 228.8,377.8 357.8,578.1 324.2,503.5 685.6,1017.7 899.6,1261.5" /></g><g
         transform="scale(1.68606)"
         id="g34"><path
           id="path36"
           style="fill:#100f0d;fill-opacity:1;fill-rule:nonzero;stroke:none"
           d="m 12791.4,15813.4 c -155.4,-36.6 -270.2,-39 -429.9,-40.5 -151.2,-1.4 -260.9,-37.8 -704.2,-167.8 -443.3,-130 -722.7,-242.1 -1295.9,-557.9 -103.9,-57.2 -196.6,-135.6 -273.7,-225.8 -87,-101.6 -142.21,-226.1 -196.06,-348.6 -315.95,-717.8 -631.89,-1435.7 -947.89,-2153.6 -35.83,-81.5 -71.65,-162.9 -107.53,-244.3 -82.03,-186.6 -165.54,-382.4 -187,-582.2 -7.54,-69.7 -7.54,-140.1 2.78,-210.5 39.98,-272.2 352.96,-473 579.1,-468.2 226.09,4.8 346.37,71 464.87,200.1 42.53,46.3 79.3,96.9 112.4,150.1 30.3,48.8 57.47,99.7 83.09,151.6 24.26,49.4 47.09,99.7 69.81,149.7 122.63,270.2 398.93,966.7 482.53,1163.5 196.4,463.1 369.6,726.4 708.6,878.5 182.5,81.9 370.4,170.3 694,248.1 106.4,25.6 176.7,43 1130.5,260.7 119.5,27.3 -813.8,-326.7 -690.7,-371.4 150.8,-54.7 317.7,-149.7 410.4,-280.7 98.8,-139.8 129.2,-257.4 84.6,-427.8 -10.3,-52.4 68.4,-104.7 97.2,-96.4 88.2,25.2 208.5,100.8 266,118.7 100.9,31.3 206.4,20.1 304,-20.4 135.1,-56.1 259.4,-137.6 364.5,-239.2 61.9,-59.7 117.6,-127.3 153.2,-205.6 60.1,-132.4 9.9,-329.4 -27.5,-471.6 -4.8,-22.8 30.5,-77.4 60.2,-57.8 34.1,22.6 46.8,22 77.3,40.5 132.8,80.9 250,93.3 369.6,85.8 116.2,-7.3 355.1,-129.5 508.5,-304.5 66.1,-75.6 78.2,-237.7 43.8,-391.6 -65.9,-294 -152.3,-431.3 -235,-602.6 462.4,402.7 1022,1480.3 1096.7,1639.2 60.8,129.1 152.4,387.5 203.4,636.3 71.1,347 -7.6,364 67.8,630 46.4,163.7 80.6,315.1 -1.9,413 -724.9,860.2 -1493.5,1579.3 -2249.8,2081.1 -47.3,31.4 -95.5,63.2 -150,79.4 -98.5,29.3 -263.9,-65.9 -348.2,-125.2 -155.3,-109.2 -457.5,-301 -589.6,-332.1" /></g><g
         transform="scale(1.39679)"
         id="g38"><path
           id="path40"
           style="fill:#100f0d;fill-opacity:1;fill-rule:nonzero;stroke:none"
           d="m 12440.7,14261.3 c 117.1,287.6 230.1,567.5 276.9,690.6 109.7,288.4 277.9,666.9 533.8,914.6 137.8,133.3 279.5,237.5 411.8,301.8 83,40.3 316.1,131.7 262.1,68.1 -517.3,-609.5 -972.4,-1380.1 -1348.8,-2022.4 l -135.8,47.3" /></g><path
         id="path42"
         style="fill:#100f0d;fill-opacity:1;fill-rule:nonzero;stroke:none"
         d="m 9558.85,14878.1 c -34.32,-104.1 -601.8,-1865.5 -864.36,-2485.2 -960.35,-0.8 -1109.5,9.6 -2030.92,8.9 -22.13,592.6 -21.59,1517.8 -11.93,2199.7 1.23,86.8 17.39,260.7 163.27,265.9 367.7,13.3 1999.89,10 2743.94,10.7" /><g
         transform="scale(1.37711)"
         id="g44"><path
           id="path46"
           style="fill:#100f0d;fill-opacity:1;fill-rule:nonzero;stroke:none"
           d="m 16293.2,10331.5 c -6,-481.09 6.8,-903.57 -10.3,-1359.74 -427.3,9.08 -1035.9,18.08 -1463.4,27.16 162.1,510.7 348.5,1014.18 513,1526.28 259.6,0.2 535.3,-10.9 775.5,-22 108.1,-5 186.6,-66.6 185.2,-171.7" /></g><g
         transform="scale(1.03818)"
         id="g48"><path
           id="path50"
           style="fill:#100f0d;fill-opacity:1;fill-rule:nonzero;stroke:none"
           d="m 15347.4,15949.7 c 109.7,276.6 277.1,297.4 487.4,273.2 171.4,-19.7 334.8,-129 400,-288.8 65.2,-159.7 17.1,-363.9 -124.2,-463.1 -157.7,-110.8 -372.3,-102.2 -557.3,-15.1 -196.6,92.8 -272.8,325.4 -205.9,493.8" /></g><g
         transform="scale(1.20636)"
         id="g52"><path
           id="path54"
           style="fill:#100f0d;fill-opacity:1;fill-rule:nonzero;stroke:none"
           d="m 13994.4,13191.5 c -200.5,-140.9 -522.1,-116.4 -708.2,-19.2 -247.6,129.3 -343.4,371.1 -278.9,592.1 75.5,258.2 369.3,413.3 636.5,382.5 217.9,-25 425.4,-163.9 508.3,-367 82.8,-203 21.8,-462.4 -157.7,-588.4 z m 1781.1,2580.6 c -29.2,59.7 -93.9,92.4 -154.8,119.2 -349.2,153.5 -719.5,251.9 -1088.2,349.8 -88.6,23.6 -129.4,34.8 -214.7,58.9 -365.8,-912.2 -565.1,-1140.3 -997.7,-1331.3 -248.9,-109.7 -433.5,-110.2 -722.1,-35.5 -161.9,-609 -295.1,-1134.4 -480.3,-1736.4 -35.8,-116.1 -64.4,-262.5 27,-342.5 34.7,-30.5 80.7,-44.1 125.2,-56 623.7,-165.4 1150,-321.4 1806.1,-490 157.5,-40.4 395.9,-79.5 540.8,-5.6 104,53 152.7,172.2 192.8,282 328.8,901.6 626.1,1814.9 890.9,2737.4 23.1,80.2 45.9,160.5 68.4,240.9 19.3,68.8 37.9,144.9 6.6,209.1" /></g><g
         transform="scale(1.30767)"
         id="g56"><path
           id="path58"
           style="fill:#100f0d;fill-opacity:1;fill-rule:nonzero;stroke:none"
           d="m 16164.6,12912 c 135.4,-202.4 71.5,-472.5 0.7,-705.5 -287.2,-946.5 -534,-1681.4 -887.5,-2605.29 -34.6,-90.85 -73.9,-186.98 -153.6,-242.65 -64.3,-44.96 -145.3,-56.51 -223.2,-66.83 -381.3,-50.7 -5282.66,-87.41 -7771.72,43.36 -112.95,5.96 -159,114.86 -116,260.38 528.91,1790.03 1134.04,3306.73 1799.2,5077.93 23.63,63 49.7,129.4 102.55,171 64.46,50.5 153.32,53 235.15,52.5 670.5,-4.3 1221.72,-38 1830.62,-129.2 -0.6,-213.9 -0.9,-336.6 78.1,-517.6 73.3,-167.9 206.4,-273.7 344.8,-342.2 -160.1,-613.7 -322.9,-1226.6 -518.7,-1862.8 -32.9,-107.1 -22.8,-268 61.6,-341.8 32,-28.1 220.3,-80.7 261.4,-91.6 575.4,-152.6 1380.7,-405.4 2073.9,-532.2 147.5,-27 175.8,-26.6 309.4,41.5 96,48.9 148.1,151.7 185,252.9 303.4,831.9 513.3,1518 757.7,2369.1 512.4,-207.3 845.2,-327.8 1329.7,-594.3 112.9,-62.2 229.1,-129.7 300.9,-236.7" /></g><g
         transform="scale(1.38921)"
         id="g60"><path
           id="path62"
           style="fill:#100f0d;fill-opacity:1;fill-rule:nonzero;stroke:none"
           d="m 16267.7,4447.35 c -9.5,-217.6 -24.4,-476.46 -117.1,-673.69 -70.7,-150.3 -191.7,-270.59 -314.7,-382.09 -1194,-1080.83 -2781.5,-1721.91 -5226.5,-1724 -2645.66,-2.23 -4861.17,885.68 -5254.32,1073.2 -163.92,78.32 -329.74,171.47 -431.13,322.12 -91.13,135.55 -132.79,300.83 -145.19,463.72 -118.34,1554.63 -111.71,2659.93 -92.55,4342.98 2.22,194.64 37.51,417.58 200.1,524.47 104.53,68.74 237.63,69.46 362.54,75.37 799.11,8.13 9166.65,-82.78 10469.05,-91.64 46.8,-0.36 286.4,-58.23 326.2,-82.71 63.6,-39.15 183.3,-184.63 192.4,-258.78 56.9,-466.52 63.5,-2842.98 31.2,-3588.95" /></g></g></g></svg>